# xmcd CD database file
#
# Track frame offsets:
#	150
#	27225
#	55013
#	77288
#	94875
#	122925
#	141525
#	162038
#
# Disc length: 2441 seconds
#
# Revision: 0
# Processed by: cddbd v1.5.1PL0 Copyright (c) Steve Scherf et al.
# Submitted via: CDex 1.51
#
DISCID=61098708
DTITLE=Patrice Rushen - Shout it out
DYEAR=1976
DGENRE=Jazz
TTITLE0=The Hump
TTITLE1=Shout it out
TTITLE2=Stepping stones
TTITLE3=Let your heart be free
TTITLE4=Roll with the punches
TTITLE5=Let there be funk
TTITLE6=Yolon
TTITLE7=Sojourn
EXTD=YEAR: 1976
EXTT0=
EXTT1=
EXTT2=
EXTT3=
EXTT4=
EXTT5=
EXTT6=
EXTT7=
PLAYORDER=
